<svg width="292" height="112" viewBox="0 0 292 112" fill="none" xmlns="http://www.w3.org/2000/svg">
<mask id="mask0_2036_84" style="mask-type:luminance" maskUnits="userSpaceOnUse" x="0" y="48" width="32" height="16">
<path d="M0.0419922 48.1615H31.6722V63.9792H0.0419922V48.1615Z" fill="white"/>
</mask>
<g mask="url(#mask0_2036_84)">
<mask id="mask1_2036_84" style="mask-type:luminance" maskUnits="userSpaceOnUse" x="0" y="48" width="32" height="16">
<path d="M31.6672 56.0365C31.6672 60.3907 28.1412 63.9167 23.7922 63.9167H8.05261C3.70366 63.9167 0.104697 60.4427 0.0734477 56.099C0.0421971 51.7188 3.57866 48.1615 7.94845 48.1615H23.7922C28.1412 48.1615 31.6672 51.6875 31.6672 56.0365Z" fill="white"/>
</mask>
<g mask="url(#mask1_2036_84)">
<path d="M0.0419922 48.1615H31.6722V63.9167H0.0419922V48.1615Z" fill="#481C4B"/>
</g>
</g>
<mask id="mask2_2036_84" style="mask-type:luminance" maskUnits="userSpaceOnUse" x="13" y="14" width="19" height="30">
<path d="M13.8955 14.6354H31.6663V43.6042H13.8955V14.6354Z" fill="white"/>
</mask>
<g mask="url(#mask2_2036_84)">
<mask id="mask3_2036_84" style="mask-type:luminance" maskUnits="userSpaceOnUse" x="13" y="14" width="19" height="30">
<path d="M31.666 27.3177V43.5469L16.2441 28.1302C13.1712 25.0521 13.1712 20.0677 16.2441 16.9896C19.3223 13.9115 24.3118 13.9115 27.3848 16.9844C30.1244 19.724 31.666 23.4427 31.666 27.3177Z" fill="white"/>
</mask>
<g mask="url(#mask3_2036_84)">
<path d="M13.1709 13.9115H31.6657V43.5313H13.1709V13.9115Z" fill="#2DCF42"/>
</g>
</g>
<mask id="mask4_2036_84" style="mask-type:luminance" maskUnits="userSpaceOnUse" x="13" y="68" width="19" height="30">
<path d="M13.8955 68.5312H31.6663V97.4271H13.8955V68.5312Z" fill="white"/>
</mask>
<g mask="url(#mask4_2036_84)">
<mask id="mask5_2036_84" style="mask-type:luminance" maskUnits="userSpaceOnUse" x="13" y="68" width="19" height="30">
<path d="M31.666 68.5312V84.7552C31.666 88.6302 30.1244 92.349 27.3848 95.0885C24.3119 98.1615 19.3275 98.1615 16.2441 95.0885C13.166 92.0104 13.1712 87.026 16.2441 83.9479L31.666 68.5312Z" fill="white"/>
</mask>
<g mask="url(#mask5_2036_84)">
<path d="M13.1709 68.5312H31.6657V98.151H13.1709V68.5312Z" fill="#EFD109"/>
</g>
</g>
<mask id="mask6_2036_84" style="mask-type:luminance" maskUnits="userSpaceOnUse" x="47" y="0" width="17" height="31">
<path d="M47.417 0.78125H63.3076V30.5677H47.417V0.78125Z" fill="white"/>
</mask>
<g mask="url(#mask6_2036_84)">
<mask id="mask7_2036_84" style="mask-type:luminance" maskUnits="userSpaceOnUse" x="47" y="0" width="17" height="31">
<path d="M63.1771 8.79169C63.1771 12.599 61.6615 16.2552 58.9688 18.9479L47.4219 30.4948V8.68752C47.4219 4.31773 50.9792 0.781273 55.3594 0.812522C59.7031 0.848981 63.1771 4.44794 63.1771 8.79169Z" fill="white"/>
</mask>
<g mask="url(#mask7_2036_84)">
<path d="M46.3174 -0.322876H111.854V112.432H46.3174V-0.322876Z" fill="#E01D5B"/>
</g>
</g>
<mask id="mask8_2036_84" style="mask-type:luminance" maskUnits="userSpaceOnUse" x="47" y="81" width="17" height="31">
<path d="M47.417 81.5417H63.3076V111.328H47.417V81.5417Z" fill="white"/>
</mask>
<g mask="url(#mask8_2036_84)">
<mask id="mask9_2036_84" style="mask-type:luminance" maskUnits="userSpaceOnUse" x="47" y="81" width="17" height="31">
<path d="M58.8958 93.0521C61.6354 95.7917 63.1771 99.5104 63.1771 103.385C63.1771 107.432 60.1198 110.771 56.1875 111.214H56.1823C55.8854 111.219 55.5937 111.219 55.2969 111.219C55.0052 111.219 54.7083 111.219 54.4115 111.214C50.4792 110.771 47.4219 107.438 47.4219 103.385V81.5781L58.8958 93.0521Z" fill="white"/>
</mask>
<g mask="url(#mask9_2036_84)">
<path d="M46.3174 -0.322876H111.854V112.432H46.3174V-0.322876Z" fill="#2BB1EB"/>
</g>
</g>
<mask id="mask10_2036_84" style="mask-type:luminance" maskUnits="userSpaceOnUse" x="47" y="14" width="64" height="84">
<path d="M47.417 14.6823H110.526V97.4271H47.417V14.6823Z" fill="white"/>
</mask>
<g mask="url(#mask10_2036_84)">
<mask id="mask11_2036_84" style="mask-type:luminance" maskUnits="userSpaceOnUse" x="47" y="14" width="64" height="84">
<path d="M110.51 55.6251C110.75 60.1511 107.047 63.9167 102.51 63.9167H74.3854C74.3594 63.9167 74.3437 63.948 74.3646 63.9636L94.349 83.948C97.4271 87.0261 97.4271 92.0105 94.349 95.0886C91.2865 98.1459 86.3385 98.1667 83.2552 95.1355C83.2396 95.1198 83.224 95.1042 83.2083 95.0886C83.1875 95.073 83.1719 95.0573 83.1563 95.0417L63.1771 75.0573V75.0521L55.3021 67.1771H55.2969L52.0365 63.9167L49.724 61.6094C48.25 60.1303 47.4219 58.1303 47.4219 56.0365C47.4219 53.948 48.25 51.948 49.724 50.4688L52.0365 48.1615L55.2969 44.8959L63.1771 37.0209L83.2083 16.9896L83.2604 16.9428C86.3385 13.9115 91.2865 13.9323 94.349 16.9896C97.4271 20.0678 97.4271 25.0573 94.3542 28.1303L74.3646 48.1146C74.349 48.1355 74.3594 48.1667 74.3854 48.1667H102.646C106.859 48.1667 110.297 51.4688 110.51 55.6251Z" fill="white"/>
</mask>
<g mask="url(#mask11_2036_84)">
<path d="M46.3174 -0.322876H111.854V112.432H46.3174V-0.322876Z" fill="#481C4B"/>
</g>
</g>
<path d="M138.145 66.2375L135.52 69.1333V79.3H125.457V32.2583H135.52V60.1541L148.436 45.1958H160.332L145.561 60.925L160.54 79.3H148.061L138.145 66.2375Z" fill="#481C4B"/>
<path d="M184.094 79.3L183.386 74.3L181.844 77.9458C180.646 78.7271 179.334 79.2948 177.907 79.6542C176.474 80.0135 174.974 80.1958 173.407 80.1958C171.474 80.1958 169.677 79.8104 168.011 79.05C166.354 78.2739 165.016 77.1437 163.99 75.6542C162.959 74.1542 162.448 72.3417 162.448 70.2167C162.448 66.5083 164.042 63.6229 167.24 61.55C170.448 59.4823 175.058 58.4458 181.073 58.4458H183.261V57.8625C183.261 57.3937 183.261 56.925 183.261 56.4667C183.261 55.9979 183.219 55.4823 183.136 54.925C183.037 53.8989 182.594 53.0239 181.802 52.3C181.021 51.5656 179.886 51.1958 178.386 51.1958C176.813 51.1958 175.599 51.6542 174.74 52.5708C173.891 53.4875 173.396 54.8 173.261 56.5083H163.677C163.761 53.9146 164.469 51.7114 165.802 49.9042C167.146 48.0864 168.953 46.6958 171.219 45.7375C173.479 44.7792 176 44.3 178.782 44.3C182.141 44.3 184.834 44.7531 186.865 45.6542C188.891 46.5448 190.386 47.7792 191.344 49.3625C192.302 50.9354 192.87 52.7375 193.052 54.7792C193.177 56.3625 193.24 58.2062 193.24 60.3V70.6542C193.24 71.9354 193.282 73.2271 193.365 74.5292C193.448 75.8364 193.62 77.425 193.886 79.3H184.094ZM177.365 73.2792C178.865 73.2792 180.219 72.7375 181.427 71.6542C182.646 70.5708 183.261 68.9823 183.261 66.8833V64.3833C180.136 64.1333 177.599 64.4042 175.657 65.1958C173.724 65.9771 172.761 67.3729 172.761 69.3833C172.761 70.6646 173.183 71.6333 174.032 72.3C174.891 72.9562 176 73.2792 177.365 73.2792Z" fill="#481C4B"/>
<path d="M219.661 44.3C220.213 44.3 220.687 44.3208 221.078 44.3625C221.463 44.4042 221.849 44.4667 222.224 44.55V52.675C218.265 52.425 215.39 53.2167 213.599 55.05C211.807 56.8833 210.911 60.2114 210.911 65.0292V79.3H200.849V45.1958H210.911V51.7167L213.453 46.9875C214.312 46.0864 215.317 45.4146 216.474 44.9667C217.625 44.5239 218.687 44.3 219.661 44.3Z" fill="#481C4B"/>
<path d="M236.113 32.2583V67.6541C236.113 68.3781 236.113 68.9666 236.113 69.425C236.113 69.8729 236.134 70.3208 236.175 70.7791C236.259 71.5604 236.556 72.0864 237.071 72.3625C237.582 72.6437 238.592 72.7583 240.092 72.7166V79.55C239.144 79.6333 238.181 79.7062 237.196 79.7791C236.222 79.8468 235.181 79.8833 234.071 79.8833C231.681 79.8833 229.8 79.3833 228.425 78.3833C227.061 77.3729 226.321 75.7583 226.196 73.55C226.155 72.6906 226.118 71.8208 226.092 70.9458C226.076 70.0708 226.071 69.0396 226.071 67.8416V32.2583H236.113Z" fill="#481C4B"/>
<path d="M264.862 79.3L264.153 74.3L262.612 77.9458C261.414 78.7271 260.101 79.2948 258.674 79.6542C257.242 80.0135 255.742 80.1958 254.174 80.1958C252.242 80.1958 250.445 79.8104 248.778 79.05C247.122 78.2739 245.784 77.1437 244.757 75.6542C243.726 74.1542 243.216 72.3417 243.216 70.2167C243.216 66.5083 244.81 63.6229 248.007 61.55C251.216 59.4823 255.825 58.4458 261.841 58.4458H264.028V57.8625C264.028 57.3937 264.028 56.925 264.028 56.4667C264.028 55.9979 263.987 55.4823 263.903 54.925C263.804 53.8989 263.362 53.0239 262.57 52.3C261.789 51.5656 260.653 51.1958 259.153 51.1958C257.58 51.1958 256.367 51.6542 255.507 52.5708C254.659 53.4875 254.164 54.8 254.028 56.5083H244.445C244.528 53.9146 245.237 51.7114 246.57 49.9042C247.914 48.0864 249.721 46.6958 251.987 45.7375C254.247 44.7792 256.768 44.3 259.549 44.3C262.909 44.3 265.601 44.7531 267.632 45.6542C269.659 46.5448 271.153 47.7792 272.112 49.3625C273.07 50.9354 273.638 52.7375 273.82 54.7792C273.945 56.3625 274.007 58.2062 274.007 60.3V70.6542C274.007 71.9354 274.049 73.2271 274.132 74.5292C274.216 75.8364 274.388 77.425 274.653 79.3H264.862ZM258.132 73.2792C259.632 73.2792 260.987 72.7375 262.195 71.6542C263.414 70.5708 264.028 68.9823 264.028 66.8833V64.3833C260.903 64.1333 258.367 64.4042 256.424 65.1958C254.492 65.9771 253.528 67.3729 253.528 69.3833C253.528 70.6646 253.95 71.6333 254.799 72.3C255.659 72.9562 256.768 73.2792 258.132 73.2792Z" fill="#481C4B"/>
<mask id="mask12_2036_84" style="mask-type:luminance" maskUnits="userSpaceOnUse" x="280" y="69" width="12" height="12">
<path d="M280.594 69.1459H291.958V80.5157H280.594V69.1459Z" fill="white"/>
</mask>
<g mask="url(#mask12_2036_84)">
<mask id="mask13_2036_84" style="mask-type:luminance" maskUnits="userSpaceOnUse" x="280" y="69" width="12" height="12">
<path d="M286.276 69.1459C283.141 69.1459 280.594 71.6927 280.594 74.8282C280.594 77.9688 283.141 80.5157 286.276 80.5157C289.417 80.5157 291.958 77.9688 291.958 74.8282C291.958 71.6927 289.417 69.1459 286.276 69.1459Z" fill="white"/>
</mask>
<g mask="url(#mask13_2036_84)">
<path d="M280.594 69.1459H291.958V80.5157H280.594V69.1459Z" fill="#E01D5B"/>
</g>
</g>
</svg>
